<mxfile host="app.diagrams.net" modified="2021-12-02T08:57:22.503Z" agent="5.0 (Windows NT 10.0; Win64; x64) AppleWebKit/537.36 (KHTML, like Gecko) Chrome/96.0.4664.45 Safari/537.36" etag="Vb1Kpo0XRe-aZFllEx_W" version="15.8.8" type="github">
  <diagram id="jaQBeWbl_Nuf3-l5iCqp" name="第 1 页">
    <mxGraphModel dx="1422" dy="762" grid="1" gridSize="10" guides="1" tooltips="1" connect="1" arrows="1" fold="1" page="1" pageScale="1" pageWidth="850" pageHeight="1100" math="0" shadow="0">
      <root>
        <mxCell id="0" />
        <mxCell id="1" parent="0" />
        <mxCell id="noGp8QrI-Sb6KPnvNejc-2" value="test" style="whiteSpace=wrap;html=1;aspect=fixed;fillColor=#fff2cc;strokeColor=#d6b656;dashed=1;dashPattern=1 1;strokeWidth=4;" vertex="1" parent="1">
          <mxGeometry x="320" y="140" width="80" height="80" as="geometry" />
        </mxCell>
      </root>
    </mxGraphModel>
  </diagram>
</mxfile>
